<?xml version="1.0" encoding="UTF-8" standalone="no"?>
<!-- Created with Inkscape (http://www.inkscape.org/) -->

<svg
   xmlns:dc="http://purl.org/dc/elements/1.1/"
   xmlns:cc="http://creativecommons.org/ns#"
   xmlns:rdf="http://www.w3.org/1999/02/22-rdf-syntax-ns#"
   xmlns:svg="http://www.w3.org/2000/svg"
   xmlns="http://www.w3.org/2000/svg"
   xmlns:sodipodi="http://sodipodi.sourceforge.net/DTD/sodipodi-0.dtd"
   xmlns:inkscape="http://www.inkscape.org/namespaces/inkscape"
   width="210mm"
   height="297mm"
   viewBox="0 0 210 297"
   version="1.1"
   id="svg8"
   inkscape:version="0.92.2 5c3e80d, 2017-08-06"
   sodipodi:docname="roggn_icon.svg">
  <defs
     id="defs2" />
  <sodipodi:namedview
     id="base"
     pagecolor="#ffffff"
     bordercolor="#666666"
     borderopacity="1.0"
     inkscape:pageopacity="0.0"
     inkscape:pageshadow="2"
     inkscape:zoom="0.7"
     inkscape:cx="292.30414"
     inkscape:cy="488.3907"
     inkscape:document-units="mm"
     inkscape:current-layer="layer1"
     showgrid="false"
     inkscape:window-width="1680"
     inkscape:window-height="938"
     inkscape:window-x="0"
     inkscape:window-y="637"
     inkscape:window-maximized="1" />
  <metadata
     id="metadata5">
    <rdf:RDF>
      <cc:Work
         rdf:about="">
        <dc:format>image/svg+xml</dc:format>
        <dc:type
           rdf:resource="http://purl.org/dc/dcmitype/StillImage" />
        <dc:title></dc:title>
      </cc:Work>
    </rdf:RDF>
  </metadata>
  <g
     inkscape:label="Ebene 1"
     inkscape:groupmode="layer"
     id="layer1">
    <g
       id="g273"
       transform="translate(1.5119048,-17.386905)">
      <circle
         r="92.98214"
         cy="156.77084"
         cx="105.07737"
         id="path236"
         style="fill:#800000;stroke-width:0.27934548" />
      <g
         transform="translate(37.419643,-60.476191)"
         id="g232">
        <g
           id="g209">
          <g
             style="fill:#ffcc00"
             id="g171">
            <path
               style="fill:#ffcc00;stroke:#000000;stroke-width:0.26458332px;stroke-linecap:butt;stroke-linejoin:miter;stroke-opacity:1"
               d="m 46.798177,216.98717 c 7.654017,0.4016 10.394344,2.59858 12.756695,4.22861 0,0 3.118305,-0.92132 6.000371,-3.09468 2.645835,-2.03163 1.984378,-4.5121 1.488282,-5.29167 -0.661458,-0.89769 -1.984374,-2.008 -3.614397,-2.76395 -1.370163,-0.4961 -2.267857,-0.96857 -4.417597,-0.8032 -2.385974,0.11811 -4.488468,0.56696 -6.66183,1.81901 -1.96075,1.29929 -5.716889,3.70889 -5.551524,5.90588 z"
               id="path61"
               inkscape:connector-curvature="0"
               sodipodi:nodetypes="cccccccc" />
            <path
               sodipodi:nodetypes="cccccccc"
               inkscape:connector-curvature="0"
               id="path67"
               d="m 67.09831,237.3002 c -0.4016,-7.65402 -2.59858,-10.39434 -4.22861,-12.75669 0,0 0.92132,-3.11831 3.09468,-6.00037 2.03163,-2.64584 4.5121,-1.98438 5.29167,-1.48829 0.89769,0.66146 2.008,1.98438 2.76395,3.6144 0.4961,1.37016 0.96857,2.26786 0.8032,4.4176 -0.11811,2.38597 -0.56696,4.48847 -1.81901,6.66183 -1.29929,1.96075 -3.70889,5.71689 -5.90588,5.55152 z"
               style="fill:#ffcc00;stroke:#000000;stroke-width:0.26458332px;stroke-linecap:butt;stroke-linejoin:miter;stroke-opacity:1" />
          </g>
          <g
             style="fill:#ffcc00"
             id="g167">
            <path
               style="fill:#ffcc00;stroke:#000000;stroke-width:0.26458332px;stroke-linecap:butt;stroke-linejoin:miter;stroke-opacity:1"
               d="m 36.12035,227.85398 c 7.654017,0.4016 10.394344,2.59858 12.756695,4.22861 0,0 3.118305,-0.92132 6.000371,-3.09468 2.645835,-2.03163 1.984378,-4.5121 1.488282,-5.29167 -0.661458,-0.89769 -1.984374,-2.008 -3.614397,-2.76395 -1.370163,-0.4961 -2.267857,-0.96857 -4.417597,-0.8032 -2.385974,0.11811 -4.488468,0.56696 -6.66183,1.81901 -1.96075,1.29929 -5.716889,3.70889 -5.551524,5.90588 z"
               id="path37"
               inkscape:connector-curvature="0"
               sodipodi:nodetypes="cccccccc" />
            <path
               style="fill:#ffcc00;stroke:#000000;stroke-width:0.26458332px;stroke-linecap:butt;stroke-linejoin:miter;stroke-opacity:1"
               d="m 56.609471,247.97803 c -0.4016,-7.65402 -2.59858,-10.39434 -4.22861,-12.75669 0,0 0.92132,-3.11831 3.09468,-6.00037 2.03163,-2.64584 4.5121,-1.98438 5.29167,-1.48829 0.89769,0.66146 2.008,1.98438 2.76395,3.6144 0.4961,1.37016 0.96857,2.26786 0.8032,4.4176 -0.11811,2.38597 -0.56696,4.48847 -1.81901,6.66183 -1.29929,1.96075 -3.70889,5.71689 -5.90588,5.55152 z"
               id="path69"
               inkscape:connector-curvature="0"
               sodipodi:nodetypes="cccccccc" />
          </g>
          <g
             style="fill:#ffcc00"
             id="g163">
            <path
               sodipodi:nodetypes="cccccccc"
               inkscape:connector-curvature="0"
               id="path59"
               d="m 25.348028,238.53181 c 7.654017,0.4016 10.394344,2.59858 12.756695,4.22861 0,0 3.118305,-0.92132 6.000371,-3.09468 2.645835,-2.03163 1.984378,-4.5121 1.488282,-5.29167 -0.661458,-0.89769 -1.984374,-2.008 -3.614397,-2.76395 -1.370163,-0.4961 -2.267857,-0.96857 -4.417597,-0.8032 -2.385974,0.11811 -4.488468,0.56696 -6.66183,1.81901 -1.96075,1.29929 -5.716889,3.70889 -5.551524,5.90588 z"
               style="fill:#ffcc00;stroke:#000000;stroke-width:0.26458332px;stroke-linecap:butt;stroke-linejoin:miter;stroke-opacity:1" />
            <path
               sodipodi:nodetypes="cccccccc"
               inkscape:connector-curvature="0"
               id="path71"
               d="m 45.553667,258.84485 c -0.4016,-7.65402 -2.59858,-10.39434 -4.22861,-12.75669 0,0 0.92132,-3.11831 3.09468,-6.00037 2.03163,-2.64584 4.5121,-1.98438 5.29167,-1.48829 0.89769,0.66146 2.008,1.98438 2.76395,3.6144 0.4961,1.37016 0.96857,2.26786 0.8032,4.4176 -0.11811,2.38597 -0.56696,4.48847 -1.81901,6.66183 -1.29929,1.96075 -3.70889,5.71689 -5.90588,5.55152 z"
               style="fill:#ffcc00;stroke:#000000;stroke-width:0.26458332px;stroke-linecap:butt;stroke-linejoin:miter;stroke-opacity:1" />
          </g>
          <g
             style="fill:#ffcc00"
             id="g159">
            <path
               style="fill:#ffcc00;stroke:#000000;stroke-width:0.26458332px;stroke-linecap:butt;stroke-linejoin:miter;stroke-opacity:1"
               d="m 14.566189,253.10098 c 4.944486,0.23386 4.810852,0.50113 5.813112,0.13363 1.002261,-0.36749 1.737252,-0.93544 2.873148,-1.06908 1.135895,-0.33408 2.839738,-0.46772 3.708365,-0.26727 0.902033,0.3341 1.336347,0.66818 2.037929,0.56795 0.701582,-0.10022 2.472243,-0.60136 3.441097,-1.77066 0.968851,-1.1693 1.837475,-2.3052 1.737251,-3.30746 -0.100227,-1.00226 -0.601358,-2.13815 -1.971114,-3.04019 -1.369756,-0.90203 -3.741772,-1.80407 -4.877668,-1.9377 -1.135895,-0.13364 -3.842,-0.0334 -5.144939,0.60135 -1.302938,0.63477 -3.340868,2.10475 -4.57699,3.50791 -0.7684,1.1359 -3.107008,4.34313 -3.040191,6.58152 z"
               id="path92"
               inkscape:connector-curvature="0"
               sodipodi:nodetypes="cccccccccccc" />
            <path
               sodipodi:nodetypes="cccccccccccc"
               inkscape:connector-curvature="0"
               id="path94"
               d="m 31.054924,269.68963 c -0.23386,-4.94449 -0.50113,-4.81086 -0.13363,-5.81312 0.36749,-1.00226 0.93544,-1.73725 1.06908,-2.87314 0.33408,-1.1359 0.46772,-2.83974 0.26727,-3.70837 -0.3341,-0.90203 -0.66818,-1.33635 -0.56795,-2.03793 0.10022,-0.70158 0.60136,-2.47224 1.77066,-3.4411 1.1693,-0.96885 2.3052,-1.83747 3.30746,-1.73725 1.00226,0.10023 2.13815,0.60136 3.04019,1.97112 0.90203,1.36975 1.80407,3.74177 1.9377,4.87767 0.13364,1.13589 0.0334,3.842 -0.60135,5.14493 -0.63477,1.30294 -2.10475,3.34087 -3.50791,4.57699 -1.1359,0.7684 -4.34313,3.10701 -6.58152,3.0402 z"
               style="fill:#ffcc00;stroke:#000000;stroke-width:0.26458332px;stroke-linecap:butt;stroke-linejoin:miter;stroke-opacity:1" />
          </g>
          <path
             sodipodi:nodetypes="cccccscccc"
             inkscape:connector-curvature="0"
             id="path134"
             d="m 11.48887,272.85582 c 0,0 1.841197,0.023 5.783423,-0.61166 3.942225,-0.63477 6.949008,-2.40544 7.817634,-3.10701 0.868626,-0.70159 3.140416,-4.20949 3.441094,-5.01131 0.30068,-0.8018 1.002261,-3.14041 0.601357,-5.21175 -0.267269,-1.60362 -0.300678,-2.13815 -1.269529,-3.04019 -0.74246,-0.69126 -4.10927,-1.33635 -5.946748,-0.66818 -1.703843,0.63477 -5.011303,1.70385 -6.581512,3.87541 -1.570209,2.17157 -2.639287,5.07812 -2.906556,6.64832 -0.26727,1.57022 -1.109925,6.20123 -0.939163,7.12637 z"
             style="fill:#ffcc00;stroke:#000000;stroke-width:0.26458332px;stroke-linecap:butt;stroke-linejoin:miter;stroke-opacity:1" />
        </g>
        <g
           id="g194">
          <path
             inkscape:connector-curvature="0"
             id="path136"
             d="m 75.416189,216.0617 c 0,0 29.077261,-30.11912 29.740271,-30.59269 0.663,-0.47357 0.37884,-0.56829 1.04185,-0.66299 0.663,-0.0947 1.23128,0.56828 1.89428,0.28414 0.66299,-0.28414 1.23129,-1.04186 4.07271,-3.59914 2.84143,-2.55729 12.40757,-12.21813 12.78643,-12.69171 0.37886,-0.47358 0.28414,-1.13657 0.18942,-1.79957 -0.0947,-0.663 -1.32599,-1.79957 -1.98899,-1.98899 -0.66301,-0.18944 -1.23129,-0.5683 -2.36786,0.0947 -1.13658,0.66299 -19.79527,9.75556 -20.36355,10.13442 -0.568297,0.37886 -0.852436,0.47358 -0.663015,1.23129 0.189436,0.75772 0.852435,1.70485 0.663015,1.89427 -0.18944,0.18944 -31.634561,30.97157 -31.634561,30.97157 z"
             style="fill:#ffcc00;stroke:#000000;stroke-width:0.37504917px;stroke-linecap:butt;stroke-linejoin:miter;stroke-opacity:1" />
          <g
             id="g186">
            <circle
               style="fill:#000000;stroke-width:0.37504917"
               id="path142"
               cx="101.88882"
               cy="170.45682"
               r="2.0363557" />
            <circle
               r="2.0363557"
               cy="168.08894"
               cx="106.81396"
               id="circle144"
               style="fill:#000000;stroke-width:0.37504917" />
            <circle
               style="fill:#000000;stroke-width:0.37504917"
               id="circle146"
               cx="111.64438"
               cy="166.00523"
               r="2.0363557" />
            <circle
               r="2.0363557"
               cy="163.8268"
               cx="116.66424"
               id="circle148"
               style="fill:#000000;stroke-width:0.37504917" />
          </g>
        </g>
      </g>
      <flowRoot
         transform="matrix(0.4590481,0,0,0.3520376,3.2080443,-130.14144)"
         style="font-style:normal;font-variant:normal;font-weight:bold;font-stretch:normal;font-size:40px;line-height:1.25;font-family:sans-serif;-inkscape-font-specification:'sans-serif Bold';letter-spacing:0px;word-spacing:0px;fill:#ffcc00;fill-opacity:1;stroke:none"
         id="flowRoot238"
         xml:space="preserve"><flowRegion
           style="font-style:normal;font-variant:normal;font-weight:bold;font-stretch:normal;font-family:sans-serif;-inkscape-font-specification:'sans-serif Bold';fill:#ffcc00"
           id="flowRegion240"><rect
             style="font-style:normal;font-variant:normal;font-weight:bold;font-stretch:normal;font-family:sans-serif;-inkscape-font-specification:'sans-serif Bold';fill:#ffcc00"
             y="985.37683"
             x="152.85715"
             height="108.57143"
             width="511.42856"
             id="rect242" /></flowRegion><flowPara
           id="flowPara244">roGGn</flowPara></flowRoot>    </g>
  </g>
</svg>
